<svg width="1500" height="500" xmlns="http://www.w3.org/2000/svg">
<!--Define a complex shape using <defs>-->
  <defs>
    <g id="partypanda-2-0-98">
      <desc>
        Party Panda 2.0 is Copyright 2022 by Alex Party Panda https://github.com/AlexPartyPanda
      </desc>
      <g stroke="black" stroke-width="10" stroke-linecap="round" stroke-linejoin="round">
        <g fill="LightSlateGrey">
          <path d="M141.746 364.546C88.0896 338.166 67.7686 339.117 54.9706 378.618C58.0112 418.292 64.3272 429.537 80.7686 437.25C104.636 448.709 170.876 432.772 247.283 422.005C354.846 435.377 424.823 445.054 438.422 437.25C458.371 424.569 466.499 414.297 464.22 378.618C445.099 351.034 433.356 339.684 403.243 356.338L365.719 336.403L141.746 364.546Z"/>
          <path d="M289.498 101.876C331.996 80.7832 329.868 101.341 328.195 149.954L289.498 101.876Z"/>
          <path d="M166.371 134.71C159.627 93.6161 168.829 83.778 208.586 96.0128L166.371 134.71Z"/>
        </g>
        <g fill="snow">
          <path d="M328.195 149.954C287.152 66.6969 206.241 66.6969 162.853 142.918C142.529 198.634 141.272 222.583 172.234 241.419C236.394 285.393 269.181 279.975 334.058 241.419C342.266 228.521 349.3 182.978 328.195 149.954Z"/>
          <path d="M182.788 416.142L172.234 319.986H305.915V425.523C267.207 438.31 226.501 448.015 182.788 416.142Z"/>
        </g>
        <g fill="LightSlateGrey">
          <path d="M203.895 438.422C188.866 441.956 126.168 466.883 112.43 429.041C113.412 402.012 115.628 378.479 120.983 355.165C128.972 320.386 143.947 286.097 172.234 241.42C237.262 281.898 267.857 272.611 332.885 242.592C361.052 282.666 377.85 317.581 377.663 346.957C377.6 356.842 380.012 367.162 377.663 378.618C377.663 378.618 373.927 400.898 373.927 429.041C373.927 457.185 297.706 465.393 289.498 429.041C281.289 392.69 286.505 410.486 297.706 346.957C263.52 339.96 240.669 340.596 195.687 346.957C202.359 358.413 218.925 434.889 203.895 438.422Z"/>
          <path d="M294.188 133.537C278.558 140.565 272.033 146.383 264.872 160.508C283.729 170.948 293.316 180.152 308.26 203.895L321.159 186.306C315.382 159.43 310.699 146.264 294.188 133.537Z"/>
          <path d="M207.241 139.228C219.2 152.324 213.673 152.092 217.794 160.335C206.104 161.8 197.052 169.693 176.752 195.514C174.004 187.729 173.302 187.34 169.716 175.579C166.131 163.819 195.281 126.131 207.241 139.228Z"/>
        </g>
        <path d="M215.622 195.687C226.175 185.133 255.491 189.824 260.182 198.032C248.455 209.758 227.348 207.413 215.622 195.687Z" fill="black"/>
        <path d="M221.485 228.521C242.829 237.607 245.499 236.723 263.7 228.521" fill="none"/>
      </g>
      <circle cx="194.169" cy="165.026" r="10" fill="black"/>
      <circle cx="285.98" cy="166.371" r="10" fill="black"/>
    </g>
  </defs>
<!--Use the defined shape multiple times-->
  <use href="#partypanda-2-0-98" x="0" y="0"/>
  <use href="#partypanda-2-0-98" x="150" y="0"/>
  <use href="#partypanda-2-0-98" x="300" y="0"/>
  <use href="#partypanda-2-0-98" x="450" y="0"/>
  <use href="#partypanda-2-0-98" x="600" y="0"/>
</svg>
