<svg width="1500" height="500" xmlns="http://www.w3.org/2000/svg">
  <defs>
    <pattern id="a" x="0" y="0" width="500" height="500" patternUnits="userSpaceOnUse">
      <desc>
        Party Panda 2.0 is Copyright 2022 by Alex Party Panda https://github.com/AlexPartyPanda
      </desc>
      <g stroke="#000" stroke-width="10" stroke-linecap="round" stroke-linejoin="round">
        <path d="M141.746 364.546c-53.656-26.38-73.977-25.429-86.775 14.072 3.04 39.674 9.356 50.919 25.798 58.632 23.867 11.459 90.107-4.478 166.514-15.245 107.563 13.372 177.54 23.049 191.139 15.245 19.949-12.681 28.077-22.953 25.798-58.632-19.121-27.584-30.864-38.934-60.977-22.28l-37.524-19.935zm147.752-262.67c42.498-21.093 40.37-.535 38.697 48.078zM166.371 134.71c-6.744-41.094 2.458-50.932 42.215-38.697z" fill="#789"/>
        <path d="M328.195 149.954c-41.043-83.257-121.954-83.257-165.342-7.036-20.324 55.716-21.581 79.665 9.381 98.501 64.16 43.974 96.947 38.556 161.824 0 8.208-12.898 15.242-58.441-5.863-91.465M182.788 416.142l-10.554-96.156h133.681v105.537c-38.708 12.787-79.414 22.492-123.127-9.381" fill="snow"/>
        <path d="M203.895 438.422c-15.029 3.534-77.727 28.461-91.465-9.381.982-27.029 3.198-50.562 8.553-73.876 7.989-34.779 22.964-69.068 51.251-113.745 65.028 40.478 95.623 31.191 160.651 1.172 28.167 40.074 44.965 74.989 44.778 104.365-.063 9.885 2.349 20.205 0 31.661 0 0-3.736 22.28-3.736 50.423s-76.221 36.352-84.429 0c-8.209-36.351-2.993-18.555 8.208-82.084-34.186-6.997-57.037-6.361-102.019 0 6.672 11.456 23.238 87.932 8.208 91.465m90.293-304.885c-15.63 7.028-22.155 12.846-29.316 26.971 18.857 10.44 28.444 19.644 43.388 43.387l12.899-17.589c-5.777-26.876-10.46-40.042-26.971-52.769m-86.947 5.691c11.959 13.096 6.432 12.864 10.553 21.107-11.69 1.465-20.742 9.358-41.042 35.179-2.748-7.785-3.45-8.174-7.036-19.935s25.565-49.448 37.525-36.351" fill="#789"/>
        <path d="M215.622 195.687c10.553-10.554 39.869-5.863 44.56 2.345-11.727 11.726-32.834 9.381-44.56-2.345"/>
        <path d="M221.485 228.521c21.344 9.086 24.014 8.202 42.215 0" fill="none"/>
      </g>
      <circle cx="194.169" cy="165.026" r="10"/>
      <circle cx="285.98" cy="166.371" r="10"/>
    </pattern>
  </defs>
  <path fill="url(#a)" d="M0 0h1500v500H0z"/>
</svg>
